<?xml version="1.0" encoding="UTF-8"?>
<svg width="800" height="500" xmlns="http://www.w3.org/2000/svg">
<defs>
<style>
.chart-title { font: bold 18px sans-serif; fill: #1f2937; }
.axis-label { font: 14px sans-serif; fill: #374151; }
.tick-label { font: 12px sans-serif; fill: #6b7280; }
.grid-line { stroke: #e5e7eb; }
.axis-line { stroke: #9ca3af; stroke-width: 2; }
.legend-text { font: 13px sans-serif; fill: #374151; }
.data-line { fill: none; stroke-width: 2.5; }
.data-point { stroke: white; stroke-width: 2; }
</style>
</defs>

<rect width="800" height="500" fill="white"/>
<text x="400" y="30" text-anchor="middle" class="chart-title">
large benchmark
</text>

<line x1="70" y1="430" x2="620" y2="430" class="grid-line"/>
<text x="60" y="434" text-anchor="end" class="tick-label">0.0</text>
<line x1="70" y1="368.3333333333333" x2="620" y2="368.3333333333333" class="grid-line"/>
<text x="60" y="372.3333333333333" text-anchor="end" class="tick-label">0.3</text>
<line x1="70" y1="306.66666666666663" x2="620" y2="306.66666666666663" class="grid-line"/>
<text x="60" y="310.66666666666663" text-anchor="end" class="tick-label">0.7</text>
<line x1="70" y1="244.99999999999997" x2="620" y2="244.99999999999997" class="grid-line"/>
<text x="60" y="248.99999999999997" text-anchor="end" class="tick-label">1.0</text>
<line x1="70" y1="183.33333333333331" x2="620" y2="183.33333333333331" class="grid-line"/>
<text x="60" y="187.33333333333331" text-anchor="end" class="tick-label">1.3</text>
<line x1="70" y1="121.66666666666663" x2="620" y2="121.66666666666663" class="grid-line"/>
<text x="60" y="125.66666666666663" text-anchor="end" class="tick-label">1.6</text>
<line x1="70" y1="59.99999999999994" x2="620" y2="59.99999999999994" class="grid-line"/>
<text x="60" y="63.99999999999994" text-anchor="end" class="tick-label">2.0</text>
<line x1="70" y1="430" x2="620" y2="430" class="axis-line"/>
<line x1="70" y1="60" x2="70" y2="430" class="axis-line"/>

<text x="400" y="490" text-anchor="middle" class="axis-label">
Input Size (KB)
</text>

<text x="20" y="250" text-anchor="middle"
 transform="rotate(-90, 20, 250)"
 class="axis-label">
Throughput (GB/s)
</text>
<path d="M NaN 258.9923023812556" stroke="#3b82f6" class="data-line"/><circle cx="NaN" cy="258.9923023812556" r="5" fill="#3b82f6" class="data-point"/><path d="M NaN 93.63636363636368" stroke="#10b981" class="data-line"/><circle cx="NaN" cy="93.63636363636368" r="5" fill="#10b981" class="data-point"/>
<line x1="630" y1="60"
      x2="660" y2="60"
      stroke="#3b82f6" stroke-width="2.5"/>
<circle cx="645" cy="60" r="5" fill="#3b82f6"/>
<text x="670" y="65" class="legend-text">
large – incremental as
</text>
<line x1="630" y1="85"
      x2="660" y2="85"
      stroke="#10b981" stroke-width="2.5"/>
<circle cx="645" cy="85" r="5" fill="#10b981"/>
<text x="670" y="90" class="legend-text">
large – turbofan js
</text>
</svg>