<?xml version="1.0" encoding="UTF-8"?>
<svg width="900" height="550" viewBox="0 0 900 550" xmlns="http://www.w3.org/2000/svg">
<defs>
<style>
  .title { font: bold 20px sans-serif; fill: #1f2937; }
  .axis-label { font: 14px sans-serif; fill: #374151; }
  .tick { font: 12px sans-serif; fill: #6b7280; }
  .grid { stroke: #e5e7eb; stroke-dasharray: 3,3; }
  .axis { stroke: #9ca3af; stroke-width: 1.5; }
  .bar-label { font: bold 11px sans-serif; fill: white; text-anchor: middle; }
  .legend-text { font: 13px sans-serif; fill: #374151; }
</style>
</defs>

<rect width="900" height="550" fill="#fff"/>

<!-- Title -->
<text x="450" y="40" text-anchor="middle" class="title">
JSON Throughput by Payload Size
</text>

<!-- Y Axis Grid & Labels -->

<line x1="80" y1="470" x2="700" y2="470" class="grid"/>
<text x="70" y="474" text-anchor="end" class="tick">
0.00 GB/s
</text>
<line x1="80" y1="421.25" x2="700" y2="421.25" class="grid"/>
<text x="70" y="425.25" text-anchor="end" class="tick">
0.20 GB/s
</text>
<line x1="80" y1="372.5" x2="700" y2="372.5" class="grid"/>
<text x="70" y="376.5" text-anchor="end" class="tick">
0.39 GB/s
</text>
<line x1="80" y1="323.75" x2="700" y2="323.75" class="grid"/>
<text x="70" y="327.75" text-anchor="end" class="tick">
0.59 GB/s
</text>
<line x1="80" y1="275" x2="700" y2="275" class="grid"/>
<text x="70" y="279" text-anchor="end" class="tick">
0.78 GB/s
</text>
<line x1="80" y1="226.25" x2="700" y2="226.25" class="grid"/>
<text x="70" y="230.25" text-anchor="end" class="tick">
0.98 GB/s
</text>
<line x1="80" y1="177.5" x2="700" y2="177.5" class="grid"/>
<text x="70" y="181.5" text-anchor="end" class="tick">
1.17 GB/s
</text>
<line x1="80" y1="128.75" x2="700" y2="128.75" class="grid"/>
<text x="70" y="132.75" text-anchor="end" class="tick">
1.37 GB/s
</text>
<line x1="80" y1="80" x2="700" y2="80" class="grid"/>
<text x="70" y="84" text-anchor="end" class="tick">
1.56 GB/s
</text><text x="142" y="510" text-anchor="middle" class="tick">
ABC
</text><text x="266" y="510" text-anchor="middle" class="tick">
VEC3
</text><text x="390" y="510" text-anchor="middle" class="tick">
SMALL
</text><text x="514" y="510" text-anchor="middle" class="tick">
MEDIUM
</text><text x="638" y="510" text-anchor="middle" class="tick">
LARGE
</text>
<line x1="80" y1="80" x2="80" y2="470" class="axis"/>
<line x1="80" y1="470" x2="700" y2="470" class="axis"/>

<text x="450" y="530" text-anchor="middle" class="axis-label">
Payload Type
</text>
<text x="-275" y="20" transform="rotate(-90)" text-anchor="middle" class="axis-label">
Throughput (GB/s)
</text>
<rect x="82.48" y="115.45454545454544" width="22.32" height="274.54545454545456" fill="#3b82f6" rx="4"/>
<text x="93.64" y="131.45454545454544" class="bar-label">
1.42
</text><rect x="231.28" y="470" width="22.32" height="-80" fill="#10b981" rx="4"/>
<text x="242.44" y="486" class="bar-label">
0.00
</text><rect x="380.08" y="311.39355271133525" width="22.32" height="78.60644728866475" fill="#f59e0b" rx="4"/>
<text x="391.24" y="327.39355271133525" class="bar-label">
0.63
</text><rect x="528.88" y="351.79425330097007" width="22.32" height="38.20574669902993" fill="#ef4444" rx="4"/>
<text x="540.04" y="367.79425330097007" class="bar-label">
0.47
</text><rect x="677.68" y="238.70462182324883" width="22.32" height="151.29537817675117" fill="#8b5cf6" rx="4"/>
<text x="688.8399999999999" y="254.70462182324883" class="bar-label">
0.93
</text>
<rect x="720" y="70" width="18" height="18" fill="#3b82f6" rx="4"/>
<text x="750" y="85" class="legend-text">
abc incremental simd as
</text>
<rect x="720" y="100" width="18" height="18" fill="#10b981" rx="4"/>
<text x="750" y="115" class="legend-text">
vec3 incremental simd as
</text>
<rect x="720" y="130" width="18" height="18" fill="#f59e0b" rx="4"/>
<text x="750" y="145" class="legend-text">
small incremental simd as
</text>
<rect x="720" y="160" width="18" height="18" fill="#ef4444" rx="4"/>
<text x="750" y="175" class="legend-text">
medium incremental simd as
</text>
<rect x="720" y="190" width="18" height="18" fill="#8b5cf6" rx="4"/>
<text x="750" y="205" class="legend-text">
large incremental simd as
</text></svg>