<svg width="151" height="36" viewBox="0 0 151 36" fill="none" xmlns="http://www.w3.org/2000/svg">
<g clip-path="url(#clip0_24_706)">
<path d="M21.3257 12.351C21.3257 10.7055 22.6596 9.37158 24.3051 9.37158C25.9506 9.37158 27.2845 10.7055 27.2845 12.351L27.2845 28.8846L21.3257 28.8846L21.3257 12.351Z" fill="#3B6BF5"/>
<path d="M6.15771 15.3302C6.15771 16.9756 4.82379 18.3096 3.17831 18.3096C1.53284 18.3096 0.198919 16.9757 0.198916 15.3302L0.198889 -1.58076L6.15768 -1.58076L6.15771 15.3302Z" fill="#3B6BF5"/>
<path d="M10.7183 18.8842C10.7183 17.164 12.1128 15.7694 13.8331 15.7694C15.5534 15.7694 16.9479 17.164 16.9479 18.8842L16.9479 29.5676L10.7183 29.5676L10.7183 18.8842Z" fill="#3B6BF5"/>
<path d="M16.9482 9.00261C16.9482 10.7229 15.5537 12.1174 13.8334 12.1174C12.1131 12.1174 10.7186 10.7229 10.7186 9.00261L10.7186 -1.03441L16.9482 -1.03441L16.9482 9.00261Z" fill="#3B6BF5"/>
<path d="M0.19873 24.8098C0.19873 23.1644 1.53265 21.8304 3.17813 21.8304C4.8236 21.8304 6.15752 23.1644 6.15752 24.8098L6.15752 27.5184L0.19873 27.5184L0.19873 24.8098Z" fill="#3B6BF5"/>
<path d="M27.2842 2.87082C27.2842 4.5163 25.9503 5.85022 24.3048 5.85022C22.6593 5.85022 21.3254 4.5163 21.3254 2.87082L21.3254 0.433136L27.2842 0.433136L27.2842 2.87082Z" fill="#3B6BF5"/>
</g>
<circle cx="38.6203" cy="2.93842" r="2.60664" fill="#222222"/>
<path d="M141.605 27.3817V3.35559H146.076V27.3817H141.605ZM137.825 12.3699V8.22624H150.256V12.3699H137.825Z" fill="#222222"/>
<path d="M124.251 27.3817V8.22625H128.65L128.722 14.3327L128.104 12.9515C128.371 11.9822 128.831 11.1099 129.486 10.3344C130.14 9.55901 130.891 8.95321 131.739 8.51703C132.612 8.05662 133.52 7.82642 134.465 7.82642C134.877 7.82642 135.265 7.86276 135.628 7.93546C136.016 8.00816 136.331 8.09297 136.573 8.1899L135.374 13.0969C135.107 12.9515 134.78 12.8303 134.393 12.7334C134.005 12.6365 133.617 12.588 133.229 12.588C132.624 12.588 132.042 12.7092 131.485 12.9515C130.952 13.1696 130.479 13.4846 130.067 13.8966C129.655 14.3085 129.328 14.7931 129.086 15.3505C128.868 15.8836 128.759 16.4894 128.759 17.1679V27.3817H124.251Z" fill="#222222"/>
<path d="M108.89 27.7452C107.315 27.7452 105.886 27.309 104.601 26.4367C103.317 25.5643 102.287 24.3769 101.512 22.8745C100.736 21.3722 100.349 19.6638 100.349 17.7495C100.349 15.8351 100.736 14.1268 101.512 12.6244C102.287 11.122 103.341 9.94673 104.674 9.0986C106.007 8.25048 107.509 7.82642 109.181 7.82642C110.151 7.82642 111.035 7.97181 111.835 8.2626C112.634 8.52915 113.337 8.91686 113.943 9.42574C114.549 9.93461 115.045 10.5162 115.433 11.1704C115.845 11.8247 116.124 12.5274 116.269 13.2786L115.288 13.0242V8.22625H119.795V27.3817H115.251V22.8019L116.305 22.6201C116.136 23.2744 115.821 23.9165 115.36 24.5466C114.924 25.1524 114.367 25.6976 113.688 26.1822C113.034 26.6426 112.295 27.0182 111.471 27.309C110.672 27.5998 109.811 27.7452 108.89 27.7452ZM110.126 23.7833C111.168 23.7833 112.089 23.5288 112.889 23.0199C113.688 22.5111 114.306 21.8083 114.742 20.9117C115.203 19.9909 115.433 18.9368 115.433 17.7495C115.433 16.5863 115.203 15.5565 114.742 14.6599C114.306 13.7633 113.688 13.0605 112.889 12.5517C112.089 12.0428 111.168 11.7884 110.126 11.7884C109.084 11.7884 108.163 12.0428 107.364 12.5517C106.588 13.0605 105.983 13.7633 105.546 14.6599C105.11 15.5565 104.892 16.5863 104.892 17.7495C104.892 18.9368 105.11 19.9909 105.546 20.9117C105.983 21.8083 106.588 22.5111 107.364 23.0199C108.163 23.5288 109.084 23.7833 110.126 23.7833Z" fill="#222222"/>
<path d="M79.0986 35.3785V8.22642H83.4968L83.5695 12.5882L82.8061 12.2611C82.9515 11.5099 83.3635 10.8071 84.042 10.1529C84.7205 9.47438 85.5444 8.92915 86.5137 8.51721C87.5072 8.10526 88.537 7.89929 89.6032 7.89929C91.2995 7.89929 92.8019 8.32335 94.1104 9.17148C95.4432 10.0196 96.4852 11.1827 97.2364 12.6609C98.0118 14.1391 98.3995 15.8474 98.3995 17.786C98.3995 19.7003 98.0118 21.4087 97.2364 22.9111C96.4852 24.3892 95.4432 25.5645 94.1104 26.4368C92.8019 27.285 91.3237 27.709 89.6759 27.709C88.5613 27.709 87.4829 27.4909 86.441 27.0548C85.4232 26.6186 84.5509 26.0491 83.8239 25.3464C83.1212 24.6437 82.685 23.9046 82.5154 23.1292L83.6058 22.6203V35.3785H79.0986ZM88.7672 23.7471C89.785 23.7471 90.6937 23.4926 91.4934 22.9838C92.293 22.4749 92.9109 21.7722 93.3471 20.8756C93.8075 19.979 94.0377 18.9491 94.0377 17.786C94.0377 16.6228 93.8196 15.6051 93.3835 14.7327C92.9473 13.8362 92.3294 13.1334 91.5297 12.6245C90.73 12.1157 89.8092 11.8612 88.7672 11.8612C87.701 11.8612 86.7681 12.1157 85.9684 12.6245C85.193 13.1092 84.5751 13.7998 84.1147 14.6964C83.6543 15.593 83.4241 16.6228 83.4241 17.786C83.4241 18.9491 83.6543 19.979 84.1147 20.8756C84.5751 21.7722 85.193 22.4749 85.9684 22.9838C86.7681 23.4926 87.701 23.7471 88.7672 23.7471Z" fill="#222222"/>
<path d="M45.7476 27.3819V8.22642H50.1457L50.2184 12.0793L49.4914 12.3701C49.7095 11.7401 50.0366 11.1585 50.4728 10.6254C50.909 10.0681 51.43 9.59554 52.0358 9.20782C52.6416 8.79588 53.2837 8.48086 53.9622 8.26277C54.6407 8.02045 55.3314 7.89929 56.0341 7.89929C57.0761 7.89929 57.9969 8.06892 58.7965 8.40817C59.6204 8.72318 60.2989 9.23206 60.832 9.93479C61.3894 10.6375 61.8013 11.5341 62.0679 12.6245L61.3773 12.4792L61.668 11.8976C61.9346 11.316 62.3102 10.795 62.7948 10.3346C63.2795 9.84997 63.8247 9.42591 64.4305 9.06243C65.0363 8.67472 65.6663 8.38393 66.3206 8.19008C66.9991 7.99622 67.6655 7.89929 68.3198 7.89929C69.7737 7.89929 70.9853 8.19008 71.9546 8.77165C72.9239 9.35322 73.6508 10.2377 74.1355 11.4251C74.6201 12.6124 74.8624 14.0785 74.8624 15.8232V27.3819H70.3552V16.114C70.3552 15.1447 70.222 14.345 69.9554 13.715C69.7131 13.085 69.3254 12.6245 68.7923 12.3338C68.2834 12.0187 67.6413 11.8612 66.8658 11.8612C66.26 11.8612 65.6785 11.9703 65.1211 12.1884C64.588 12.3822 64.1276 12.673 63.7399 13.0607C63.3522 13.4242 63.0493 13.8483 62.8312 14.3329C62.6131 14.8176 62.5041 15.3507 62.5041 15.9322V27.3819H57.9969V16.0776C57.9969 15.1568 57.8636 14.3935 57.5971 13.7877C57.3305 13.1577 56.9428 12.6851 56.4339 12.3701C55.925 12.0309 55.3071 11.8612 54.5802 11.8612C53.9744 11.8612 53.4049 11.9703 52.8718 12.1884C52.3387 12.3822 51.8783 12.6609 51.4906 13.0244C51.1029 13.3879 50.8 13.8119 50.5819 14.2966C50.3638 14.7812 50.2547 15.3143 50.2547 15.8959V27.3819H45.7476Z" fill="#222222"/>
<path d="M36.4072 27.3818V8.22632H40.878V17.8041V27.3818H36.4072Z" fill="#222222"/>
<defs>
<clipPath id="clip0_24_706">
<rect width="27.0854" height="27.0852" fill="white" transform="translate(0.19873 0.433105)"/>
</clipPath>
</defs>
</svg>
